<?xml version="1.0" encoding="UTF-8" standalone="no"?>
<svg
   xmlns:dc="http://purl.org/dc/elements/1.1/"
   xmlns:cc="http://creativecommons.org/ns#"
   xmlns:rdf="http://www.w3.org/1999/02/22-rdf-syntax-ns#"
   xmlns:svg="http://www.w3.org/2000/svg"
   xmlns="http://www.w3.org/2000/svg"
   xmlns:sodipodi="http://sodipodi.sourceforge.net/DTD/sodipodi-0.dtd"
   xmlns:inkscape="http://www.inkscape.org/namespaces/inkscape"
   version="1.1"
   x="0px"
   y="0px"
   width="170"
   height="90"
   viewBox="0 0 170 90"
   overflow="visible"
   enable-background="new 0 0 170 63"
   xml:space="preserve"
   id="svg24"
   sodipodi:docname="schkola-logo_SIT.svg"
   inkscape:version="1.0.1 (3bc2e813f5, 2020-09-07)"><metadata
   id="metadata28"><rdf:RDF><cc:Work
       rdf:about=""><dc:format>image/svg+xml</dc:format><dc:type
         rdf:resource="http://purl.org/dc/dcmitype/StillImage" /><dc:title></dc:title></cc:Work></rdf:RDF></metadata><sodipodi:namedview
   pagecolor="#ffffff"
   bordercolor="#666666"
   borderopacity="1"
   objecttolerance="10"
   gridtolerance="10"
   guidetolerance="10"
   inkscape:pageopacity="0"
   inkscape:pageshadow="2"
   inkscape:window-width="2560"
   inkscape:window-height="1377"
   id="namedview26"
   showgrid="false"
   inkscape:zoom="5.9588235"
   inkscape:cx="84.750476"
   inkscape:cy="37.40273"
   inkscape:window-x="1912"
   inkscape:window-y="-8"
   inkscape:window-maximized="1"
   inkscape:current-layer="svg24"
   inkscape:document-rotation="0" />
<defs
   id="defs2">
</defs>









<g
   id="g863"><path
     fill="#1d3e8f"
     d="m 3.29,51.36 c 2.76,0.86 7.29,2 10.51,2 3.68,0 7.56,-0.73 7.56,-5.08 0,-4.29 -5.33,-4.69 -10.65,-6.29 C 5.39,40.38 0,37.57 0,28.6 0,18.63 9.86,14.01 18.47,14.01 c 5.06,0 9.79,1.21 14.45,3.02 l -3.35,8.56 c -3.02,-1.14 -7.16,-1.94 -9.59,-1.94 -5.65,0 -7.76,2.07 -7.76,5.02 0,1.87 1.32,3.48 6.58,4.62 11.63,2.67 14.78,7.42 14.78,13.92 C 33.58,58.65 24.58,63 14.46,63 9.73,63 4.8,61.93 0.33,60.39 Z"
     id="path4" /><path
     fill-rule="evenodd"
     clip-rule="evenodd"
     fill="#1d3e8f"
     d="m 43.89,61.5 c -3.15,0 -5.74,-2.63 -5.74,-5.89 0,-3.15 2.59,-5.78 5.74,-5.78 3.14,0 5.78,2.63 5.78,5.78 0,3.26 -2.64,5.89 -5.78,5.89 z m 0,-16.2 c -3.15,0 -5.74,-2.63 -5.74,-5.89 0,-3.15 2.59,-5.78 5.74,-5.78 3.14,0 5.78,2.63 5.78,5.78 0,3.26 -2.64,5.89 -5.78,5.89 z"
     id="path6" /><polygon
     fill="#1d3e8f"
     points="15.38,10.84 5.59,3.08 8.87,0 17.81,4.22 26.75,0 30.03,3.08 20.24,10.84 "
     id="polygon8" /><path
     fill="#1d3e8f"
     d="m 68.25,61.58 c -1.51,0 -2.73,-0.09 -5.63,-1.21 l 1.08,-3.9 c 3.58,1.14 4.1,1.19 5.07,1.19 0.76,0 1.26,-0.41 1.26,-1.24 0,-0.66 -0.39,-0.94 -1.04,-1.14 L 66.36,54.4 c -1.9,-0.62 -3.59,-2.04 -3.59,-4.74 0,-3.42 2.73,-5.35 6.22,-5.35 1.26,0 2.45,0.14 5.09,0.85 l -0.97,3.92 c -2.81,-0.71 -3.76,-0.84 -4.62,-0.84 -0.72,0 -1.19,0.29 -1.19,1.14 0,0.6 0.43,0.81 1.08,1.03 l 2.64,0.92 c 1.98,0.67 3.56,2.04 3.56,4.75 0,3.62 -2.8,5.5 -6.33,5.5 z"
     id="path10" /><path
     fill="#1d3e8f"
     d="m 84.43,61.58 c -5.22,0 -7.09,-3.05 -7.09,-8.64 0,-6.45 2.7,-8.63 6.98,-8.63 1.22,0 2.39,0.14 4.84,0.94 l -0.94,4.11 c -2.05,-0.8 -2.8,-1.03 -3.61,-1.03 -1.71,0 -2.41,0.41 -2.41,4.56 0,4.33 0.7,4.68 2.41,4.68 0.88,0 1.87,-0.35 3.94,-1.33 l 0.9,4.1 c -2.4,1.01 -3.71,1.24 -5.02,1.24 z"
     id="path12" /><polygon
     fill="#1d3e8f"
     points="97.47,50.71 101.25,50.71 101.25,44.54 105.91,44.54 105.91,61.35 101.25,61.35 101.25,54.68 97.47,54.68 97.47,61.35 92.83,61.35 92.83,44.54 97.47,44.54 "
     id="polygon14" /><path
     fill="#1d3e8f"
     d="m 123.79,61.35 c -0.43,0.07 -1.13,0.14 -1.62,0.14 -1.87,0 -2.66,-0.71 -3.59,-2.66 l -1.75,-3.72 -1.83,2.66 v 3.58 h -4.59 V 44.54 H 115 v 7.11 h 0.25 c 0.18,-0.69 0.56,-1.65 1.17,-2.66 l 2.73,-4.45 h 4.77 v 0.26 l -4.25,6.16 2.83,5.85 c 0.21,0.41 0.27,0.51 0.77,0.51 0.2,0 0.36,-0.03 0.52,-0.05 z"
     id="path16" /><path
     fill-rule="evenodd"
     clip-rule="evenodd"
     fill="#1d3e8f"
     d="m 132.88,61.58 c -4.64,0 -7.12,-2.36 -7.12,-8.53 0,-5.91 2.54,-8.74 7.12,-8.74 4.59,0 7.11,2.46 7.11,8.65 0,6.14 -2.61,8.62 -7.11,8.62 z m -0.03,-13.46 c -1.78,0 -2.23,0.51 -2.23,4.84 0,4.15 0.39,4.84 2.26,4.84 1.87,0 2.25,-0.69 2.25,-4.84 0,-4.33 -0.61,-4.84 -2.28,-4.84 z"
     id="path18" /><polygon
     fill="#1d3e8f"
     points="143.7,44.54 148.34,44.54 148.34,57.38 153.5,57.38 153.81,61.35 143.7,61.35 "
     id="polygon20" /><path
     fill-rule="evenodd"
     clip-rule="evenodd"
     fill="#1d3e8f"
     d="m 165.27,61.35 -0.74,-3.58 h -4.01 l -0.79,3.58 h -4.59 l 4.39,-16.81 h 6.26 L 170,61.35 Z m -2.3,-10.8 c -0.15,-0.73 -0.24,-1.97 -0.24,-2.43 h -0.25 c 0,0.46 -0.14,1.7 -0.29,2.43 l -0.84,3.65 h 2.41 z"
     id="path22" /></g>
<text
   xml:space="preserve"
   style="font-size:18.6667px;line-height:1.25;font-family:Roboto;-inkscape-font-specification:Roboto;letter-spacing:0px;word-spacing:0px;fill:#00b1b5;fill-opacity:1"
   x="35.794655"
   y="85.706657"
   id="text867"
   inkscape:label="text867"><tspan
     sodipodi:role="line"
     id="tspan865"
     x="35.794655"
     y="85.706657"
     style="font-style:normal;font-variant:normal;font-weight:bold;font-stretch:normal;font-size:18.6667px;font-family:'Sanuk Pro';-inkscape-font-specification:'Sanuk Pro Bold';fill:#00b1b5;fill-opacity:1">IT Manager</tspan></text></svg>
