<?xml version="1.0" encoding="UTF-8" standalone="no"?>
<svg
   version="1.1"
   x="0px"
   y="0px"
   width="164.8455"
   height="68.989021"
   viewBox="0 0 164.8455 68.989021"
   overflow="visible"
   enable-background="new 0 0 170 63"
   xml:space="preserve"
   id="svg24"
   sodipodi:docname="schkola-logo_SIT2.svg"
   inkscape:version="1.2.2 (732a01da63, 2022-12-09)"
   inkscape:export-filename="schkola-logo_SIT2_export.svg"
   inkscape:export-xdpi="1200"
   inkscape:export-ydpi="1200"
   xmlns:inkscape="http://www.inkscape.org/namespaces/inkscape"
   xmlns:sodipodi="http://sodipodi.sourceforge.net/DTD/sodipodi-0.dtd"
   xmlns="http://www.w3.org/2000/svg"
   xmlns:svg="http://www.w3.org/2000/svg"
   xmlns:rdf="http://www.w3.org/1999/02/22-rdf-syntax-ns#"
   xmlns:cc="http://creativecommons.org/ns#"
   xmlns:dc="http://purl.org/dc/elements/1.1/"><metadata
   id="metadata28"><rdf:RDF><cc:Work
       rdf:about=""><dc:format>image/svg+xml</dc:format><dc:type
         rdf:resource="http://purl.org/dc/dcmitype/StillImage" /></cc:Work></rdf:RDF></metadata><sodipodi:namedview
   pagecolor="#ffffff"
   bordercolor="#666666"
   borderopacity="1"
   objecttolerance="10"
   gridtolerance="10"
   guidetolerance="10"
   inkscape:pageopacity="0"
   inkscape:pageshadow="2"
   inkscape:window-width="2560"
   inkscape:window-height="1377"
   id="namedview26"
   showgrid="false"
   inkscape:zoom="5.9588235"
   inkscape:cx="79.545904"
   inkscape:cy="37.423495"
   inkscape:window-x="1912"
   inkscape:window-y="-8"
   inkscape:window-maximized="1"
   inkscape:current-layer="svg24"
   inkscape:document-rotation="0"
   inkscape:showpageshadow="0"
   inkscape:pagecheckerboard="0"
   inkscape:deskcolor="#d1d1d1" />
<defs
   id="defs2" />









<g
   id="g863"><path
     fill="#1d3e8f"
     d="m 3.29,51.36 c 2.76,0.86 7.29,2 10.51,2 3.68,0 7.56,-0.73 7.56,-5.08 0,-4.29 -5.33,-4.69 -10.65,-6.29 C 5.39,40.38 0,37.57 0,28.6 0,18.63 9.86,14.01 18.47,14.01 c 5.06,0 9.79,1.21 14.45,3.02 l -3.35,8.56 c -3.02,-1.14 -7.16,-1.94 -9.59,-1.94 -5.65,0 -7.76,2.07 -7.76,5.02 0,1.87 1.32,3.48 6.58,4.62 11.63,2.67 14.78,7.42 14.78,13.92 C 33.58,58.65 24.58,63 14.46,63 9.73,63 4.8,61.93 0.33,60.39 Z"
     id="path4" /><path
     fill-rule="evenodd"
     clip-rule="evenodd"
     fill="#1d3e8f"
     d="m 43.89,61.5 c -3.15,0 -5.74,-2.63 -5.74,-5.89 0,-3.15 2.59,-5.78 5.74,-5.78 3.14,0 5.78,2.63 5.78,5.78 0,3.26 -2.64,5.89 -5.78,5.89 z m 0,-16.2 c -3.15,0 -5.74,-2.63 -5.74,-5.89 0,-3.15 2.59,-5.78 5.74,-5.78 3.14,0 5.78,2.63 5.78,5.78 0,3.26 -2.64,5.89 -5.78,5.89 z"
     id="path6" /><polygon
     fill="#1d3e8f"
     points="20.24,10.84 15.38,10.84 5.59,3.08 8.87,0 17.81,4.22 26.75,0 30.03,3.08 "
     id="polygon8" /></g>
<text
   xml:space="preserve"
   style="font-size:26.6667px;line-height:1;font-family:Roboto;-inkscape-font-specification:Roboto;letter-spacing:0px;word-spacing:0px;fill:#00b1b5;fill-opacity:1"
   x="56.045399"
   y="35.655647"
   id="text867"
   inkscape:label="text867"><tspan
     sodipodi:role="line"
     x="56.045399"
     y="35.655647"
     style="font-style:normal;font-variant:normal;font-weight:bold;font-stretch:normal;font-size:26.6667px;font-family:'Sanuk Pro';-inkscape-font-specification:'Sanuk Pro Bold';fill:#00b1b5;fill-opacity:1"
     id="tspan279">IT-</tspan><tspan
     sodipodi:role="line"
     x="56.045399"
     y="62.855682"
     style="font-style:normal;font-variant:normal;font-weight:bold;font-stretch:normal;font-size:26.6667px;font-family:'Sanuk Pro';-inkscape-font-specification:'Sanuk Pro Bold';fill:#00b1b5;fill-opacity:1"
     id="tspan283">Manager</tspan></text></svg>
