<?xml version="1.0" encoding="UTF-8"?>
<svg width="299.97" height="66.893" enable-background="new 0 0 170 63" overflow="visible" version="1.1" viewBox="0 0 299.97 66.893" xml:space="preserve" xmlns="http://www.w3.org/2000/svg" xmlns:cc="http://creativecommons.org/ns#" xmlns:dc="http://purl.org/dc/elements/1.1/" xmlns:rdf="http://www.w3.org/1999/02/22-rdf-syntax-ns#"><metadata><rdf:RDF><cc:Work rdf:about=""><dc:format>image/svg+xml</dc:format><dc:type rdf:resource="http://purl.org/dc/dcmitype/StillImage"/></cc:Work></rdf:RDF></metadata>










<g fill="#1d3e8f"><path d="m3.29 51.36c2.76 0.86 7.29 2 10.51 2 3.68 0 7.56-0.73 7.56-5.08 0-4.29-5.33-4.69-10.65-6.29-5.32-1.61-10.71-4.42-10.71-13.39 0-9.97 9.86-14.59 18.47-14.59 5.06 0 9.79 1.21 14.45 3.02l-3.35 8.56c-3.02-1.14-7.16-1.94-9.59-1.94-5.65 0-7.76 2.07-7.76 5.02 0 1.87 1.32 3.48 6.58 4.62 11.63 2.67 14.78 7.42 14.78 13.92 0 11.44-9 15.79-19.12 15.79-4.73 0-9.66-1.07-14.13-2.61z"/><path d="m43.89 61.5c-3.15 0-5.74-2.63-5.74-5.89 0-3.15 2.59-5.78 5.74-5.78 3.14 0 5.78 2.63 5.78 5.78 0 3.26-2.64 5.89-5.78 5.89zm0-16.2c-3.15 0-5.74-2.63-5.74-5.89 0-3.15 2.59-5.78 5.74-5.78 3.14 0 5.78 2.63 5.78 5.78 0 3.26-2.64 5.89-5.78 5.89z" clip-rule="evenodd" fill-rule="evenodd"/><polygon points="20.24 10.84 15.38 10.84 5.59 3.08 8.87 0 17.81 4.22 26.75 0 30.03 3.08"/><path d="m68.25 61.58c-1.51 0-2.73-0.09-5.63-1.21l1.08-3.9c3.58 1.14 4.1 1.19 5.07 1.19 0.76 0 1.26-0.41 1.26-1.24 0-0.66-0.39-0.94-1.04-1.14l-2.63-0.88c-1.9-0.62-3.59-2.04-3.59-4.74 0-3.42 2.73-5.35 6.22-5.35 1.26 0 2.45 0.14 5.09 0.85l-0.97 3.92c-2.81-0.71-3.76-0.84-4.62-0.84-0.72 0-1.19 0.29-1.19 1.14 0 0.6 0.43 0.81 1.08 1.03l2.64 0.92c1.98 0.67 3.56 2.04 3.56 4.75 0 3.62-2.8 5.5-6.33 5.5z"/><path d="m84.43 61.58c-5.22 0-7.09-3.05-7.09-8.64 0-6.45 2.7-8.63 6.98-8.63 1.22 0 2.39 0.14 4.84 0.94l-0.94 4.11c-2.05-0.8-2.8-1.03-3.61-1.03-1.71 0-2.41 0.41-2.41 4.56 0 4.33 0.7 4.68 2.41 4.68 0.88 0 1.87-0.35 3.94-1.33l0.9 4.1c-2.4 1.01-3.71 1.24-5.02 1.24z"/><polygon points="101.25 50.71 101.25 44.54 105.91 44.54 105.91 61.35 101.25 61.35 101.25 54.68 97.47 54.68 97.47 61.35 92.83 61.35 92.83 44.54 97.47 44.54 97.47 50.71"/><path d="m123.79 61.35c-0.43 0.07-1.13 0.14-1.62 0.14-1.87 0-2.66-0.71-3.59-2.66l-1.75-3.72-1.83 2.66v3.58h-4.59v-16.81h4.59v7.11h0.25c0.18-0.69 0.56-1.65 1.17-2.66l2.73-4.45h4.77v0.26l-4.25 6.16 2.83 5.85c0.21 0.41 0.27 0.51 0.77 0.51 0.2 0 0.36-0.03 0.52-0.05z"/><path d="m132.88 61.58c-4.64 0-7.12-2.36-7.12-8.53 0-5.91 2.54-8.74 7.12-8.74 4.59 0 7.11 2.46 7.11 8.65 0 6.14-2.61 8.62-7.11 8.62zm-0.03-13.46c-1.78 0-2.23 0.51-2.23 4.84 0 4.15 0.39 4.84 2.26 4.84s2.25-0.69 2.25-4.84c0-4.33-0.61-4.84-2.28-4.84z" clip-rule="evenodd" fill-rule="evenodd"/><polygon points="148.34 44.54 148.34 57.38 153.5 57.38 153.81 61.35 143.7 61.35 143.7 44.54"/><path d="m165.27 61.35-0.74-3.58h-4.01l-0.79 3.58h-4.59l4.39-16.81h6.26l4.21 16.81zm-2.3-10.8c-0.15-0.73-0.24-1.97-0.24-2.43h-0.25c0 0.46-0.14 1.7-0.29 2.43l-0.84 3.65h2.41z" clip-rule="evenodd" fill-rule="evenodd"/></g>
<text x="175.50443" y="61.372997" fill="#00b1b5" font-family="Roboto" font-size="24px" letter-spacing="0px" word-spacing="0px" style="line-height:1.25" xml:space="preserve"><tspan x="175.50443" y="61.372997" fill="#00b1b5" font-family="'Sanuk Pro'" font-size="24px" font-weight="bold">IT Manager</tspan></text></svg>
